<svg xmlns="http://www.w3.org/2000/svg" width="2311" height="400" viewBox="0 0 2311 400" fill="none"><path d="M1396.92 213.589C1396.92 213.829 1396.92 214.09 1396.94 214.33L1590 113.899L1370.77 296.898C1358.16 271.843 1351.06 243.534 1351.06 213.589C1351.06 111.013 1434.22 27.8733 1536.79 27.8733C1578.69 27.8733 1617.33 41.7275 1648.39 65.1519L1611.91 95.6128C1590.2 81.7586 1564.43 73.7411 1536.78 73.7411C1459.54 73.7411 1396.92 136.343 1396.92 213.589H1396.92Z" fill="url(#paint0_linear_3178_7699)"></path><path d="M1722.5 213.589C1722.5 316.144 1639.35 399.297 1536.79 399.297C1506.83 399.297 1478.52 392.204 1453.47 379.585L1474.11 354.876L1483.94 343.097L1636.45 160.374L1536.04 353.415C1536.29 353.43 1536.54 353.43 1536.79 353.43C1614.02 353.43 1676.64 290.814 1676.64 213.582C1676.64 185.923 1668.6 160.134 1654.77 138.432L1685.21 101.965C1708.63 133.026 1722.5 171.695 1722.5 213.589Z" fill="url(#paint1_linear_3178_7699)"></path><path d="M1668.11 82.2739L1638.56 117.675L1460.59 330.873L1431.04 366.26C1412.72 353.557 1396.8 337.635 1384.1 319.32L1419.49 289.769L1632.71 111.817L1668.11 82.2668V82.2739Z" fill="url(#paint2_linear_3178_7699)"></path><path style="mix-blend-mode:overlay" d="M1387.41 190.306C1387.41 218.191 1393.87 244.558 1405.39 268.004L1370.77 296.905C1358.15 271.85 1351.06 243.535 1351.06 213.589C1351.06 133.689 1401.52 65.5825 1472.31 39.3704C1421.41 70.3535 1387.41 126.363 1387.41 190.306Z" fill="url(#paint3_linear_3178_7699)"></path><path style="mix-blend-mode:overlay" d="M1699.07 303.927C1667.34 360.826 1606.56 399.297 1536.79 399.297C1506.83 399.297 1478.51 392.197 1453.46 379.578L1474.1 354.869L1481.24 346.301C1505.91 359.407 1534.06 366.839 1563.95 366.839C1618.17 366.839 1666.7 342.391 1699.06 303.92L1699.07 303.927Z" fill="url(#paint4_linear_3178_7699)"></path><path style="mix-blend-mode:overlay" d="M1459.26 332.468L1431.05 366.26C1412.73 353.557 1396.81 337.649 1384.09 319.32L1418.6 290.518C1429.73 306.644 1443.49 320.844 1459.26 332.468Z" fill="url(#paint5_linear_3178_7699)"></path><path style="mix-blend-mode:overlay" d="M1397.11 206.305C1400.9 132.44 1461.99 73.734 1536.79 73.734C1564.44 73.734 1590.2 81.7515 1611.91 95.6057L1648.4 65.1448C1617.34 41.7275 1578.69 27.8662 1536.8 27.8662C1481.64 30.2305 1395.82 107.844 1397.12 206.298L1397.11 206.305Z" fill="url(#paint6_linear_3178_7699)"></path><path style="mix-blend-mode:overlay" d="M1685.21 101.965L1654.77 138.432C1668.61 160.134 1676.64 185.923 1676.64 213.582C1676.64 288.372 1617.91 349.456 1544.07 353.246C1628.75 350.007 1692.74 295.663 1722.4 219.44C1722.47 217.492 1722.5 215.544 1722.5 213.589C1722.5 171.695 1708.63 133.026 1685.21 101.965Z" fill="url(#paint7_linear_3178_7699)"></path><path d="M1650.69 42.5744C1659.05 48.2558 1666.98 54.5089 1674.44 61.2843L1714.29 36.0884L1689.09 75.9289C1695.86 83.3818 1702.11 91.3076 1707.79 99.6568L1750.05 0.334229L1650.7 42.5744H1650.69Z" fill="url(#paint8_linear_3178_7699)"></path><path style="mix-blend-mode:overlay" d="M1689.1 75.936C1695.86 83.3889 1702.12 91.3146 1707.79 99.6639L1750.05 0.334229L1714.29 36.0884L1689.1 75.9289V75.936Z" fill="url(#paint9_linear_3178_7699)"></path><path d="M2181.41 390.043C2087.12 390.043 2050.48 337.239 2050.48 267.732H2108.13C2108.13 312.453 2130.76 341.55 2183.57 341.55C2232.6 341.55 2252 307.604 2252 273.12C2252 232.709 2230.44 207.384 2167.4 207.384H2060.72V41.4292H2292.95L2292.41 89.9226H2118.91V160.507H2184.1C2243.91 160.507 2310.19 186.371 2310.19 273.12C2310.19 335.623 2273.01 390.043 2181.41 390.043Z" fill="#010415"></path><path d="M2001.14 386.81L1743.05 386.271V334.006C1743.59 201.457 1938.64 228.937 1942.95 148.115C1945.64 110.398 1925.7 86.1509 1874.52 86.1509C1821.71 86.1509 1803.93 115.786 1803.93 160.507H1746.28C1746.28 90.4614 1778.61 37.6575 1872.9 37.6575C1969.35 37.6575 2004.91 86.1509 2001.68 151.348C1995.21 270.965 1800.16 246.179 1800.16 331.312V337.778H2001.14V386.81Z" fill="#010415"></path><path d="M1324.77 386.81L1066.67 386.271V334.006C1067.21 201.457 1262.26 228.937 1266.57 148.115C1269.27 110.398 1249.33 86.1509 1198.14 86.1509C1145.34 86.1509 1127.56 115.786 1127.56 160.507H1069.91C1069.91 90.4614 1102.24 37.6575 1196.53 37.6575C1292.98 37.6575 1328.54 86.1509 1325.31 151.348C1318.84 270.965 1123.79 246.179 1123.79 331.312V337.778H1324.77V386.81Z" fill="#010415"></path><path d="M889.8 390.043C781.498 390.043 753.479 321.613 753.479 248.334C753.479 175.594 782.037 106.626 890.339 106.626C997.563 106.626 1027.2 175.594 1027.2 248.334C1027.2 322.152 997.563 390.043 889.8 390.043ZM812.21 248.334C812.21 300.599 826.22 343.166 889.8 343.166C954.458 343.166 968.467 301.677 968.467 248.334C968.467 197.147 955.535 153.503 890.339 153.503C826.22 153.503 812.21 196.608 812.21 248.334Z" fill="#010415"></path><path d="M737.647 388.426C646.587 393.814 608.332 372.262 608.332 307.065V156.735H568.998V122.251L608.332 110.397V41.429H664.368V110.397H737.647V156.735H665.985V307.065C665.985 332.928 677.839 344.782 737.647 342.088V388.426Z" fill="#010415"></path><path d="M437.355 390.043C326.359 390.043 298.879 321.613 298.879 247.795C298.879 173.978 326.897 106.626 436.816 106.626C538.652 106.626 567.209 184.215 560.204 270.965H358.687C361.92 318.38 385.628 345.86 435.199 345.86C480.999 345.86 495.547 323.768 500.935 301.677H561.282C556.433 348.554 524.104 390.043 437.355 390.043ZM359.226 225.165H500.935V224.088C501.474 186.37 483.693 151.347 431.428 151.347C377.546 151.347 361.92 184.754 359.226 225.165Z" fill="#010415"></path><path d="M0.408936 386.271V41.429H123.259C253.113 41.429 266.584 107.703 266.584 151.886C266.584 237.019 198.693 256.955 132.419 256.955L278.438 386.271H198.693L59.6786 251.028V386.271H0.408936ZM59.6786 212.772H127.031C197.077 212.772 206.775 179.366 206.775 151.886C206.775 124.945 196.538 89.9224 125.953 89.9224H59.6786V212.772Z" fill="#010415"></path><defs><linearGradient id="paint0_linear_3178_7699" x1="1351.06" y1="29.1862" x2="1619.01" y2="322.436" gradientUnits="userSpaceOnUse"><stop stop-color="#EEC340"></stop><stop offset="0.333333" stop-color="#FFFA8A"></stop><stop offset="0.666667" stop-color="#DEAC18"></stop><stop offset="1" stop-color="#FFFF95"></stop></linearGradient><linearGradient id="paint1_linear_3178_7699" x1="1453.47" y1="103.416" x2="1749.03" y2="368.235" gradientUnits="userSpaceOnUse"><stop stop-color="#EEC340"></stop><stop offset="0.333333" stop-color="#FFFA8A"></stop><stop offset="0.666667" stop-color="#DEAC18"></stop><stop offset="1" stop-color="#FFFF95"></stop></linearGradient><linearGradient id="paint2_linear_3178_7699" x1="1384.1" y1="83.6528" x2="1668.09" y2="364.889" gradientUnits="userSpaceOnUse"><stop stop-color="#EEC340"></stop><stop offset="0.333333" stop-color="#FFFA8A"></stop><stop offset="0.666667" stop-color="#DEAC18"></stop><stop offset="1" stop-color="#FFFF95"></stop></linearGradient><linearGradient id="paint3_linear_3178_7699" x1="1252.94" y1="209.227" x2="1459.9" y2="158.786" gradientUnits="userSpaceOnUse"><stop stop-color="#EEEFEF"></stop><stop offset="1" stop-color="#EEEFEF"></stop></linearGradient><linearGradient id="paint4_linear_3178_7699" x1="1411.74" y1="481.576" x2="1662.46" y2="273.134" gradientUnits="userSpaceOnUse"><stop stop-color="#EEEFEF"></stop><stop offset="1" stop-color="#EEEFEF"></stop></linearGradient><linearGradient id="paint5_linear_3178_7699" x1="1317.76" y1="404.591" x2="1482.43" y2="287.391" gradientUnits="userSpaceOnUse"><stop stop-color="#EEEFEF"></stop><stop offset="1" stop-color="#EEEFEF"></stop></linearGradient><linearGradient id="paint6_linear_3178_7699" x1="1279.62" y1="-5.67889" x2="1541.68" y2="145.885" gradientUnits="userSpaceOnUse"><stop stop-color="#231F20"></stop><stop offset="1" stop-color="#231F20"></stop></linearGradient><linearGradient id="paint7_linear_3178_7699" x1="1708.58" y1="595.797" x2="1601.77" y2="137.38" gradientUnits="userSpaceOnUse"><stop stop-color="#231F20"></stop><stop offset="1" stop-color="#231F20"></stop></linearGradient><linearGradient id="paint8_linear_3178_7699" x1="1650.69" y1="0.818952" x2="1750.01" y2="99.2074" gradientUnits="userSpaceOnUse"><stop stop-color="#EEC340"></stop><stop offset="0.333333" stop-color="#FFFA8A"></stop><stop offset="0.666667" stop-color="#DEAC18"></stop><stop offset="1" stop-color="#FFFF95"></stop></linearGradient><linearGradient id="paint9_linear_3178_7699" x1="1637.86" y1="147.847" x2="1765.81" y2="8.02002" gradientUnits="userSpaceOnUse"><stop stop-color="#231F20"></stop><stop offset="1" stop-color="#231F20"></stop></linearGradient></defs></svg>